{
    "asset" : {
        "generator" : "Khronos glTF Blender I/O v1.5.17",
        "version" : "2.0"
    },
    "scene" : 0,
    "scenes" : [
        {
            "name" : "Scene",
            "nodes" : [
                0
            ]
        }
    ],
    "nodes" : [
        {
            "mesh" : 0,
            "name" : "1",
            "rotation" : [
                0,
                0.0014935971703380346,
                0,
                1
            ],
            "scale" : [
                0.43531662225723267,
                0.43531662225723267,
                0.43531662225723267
            ]
        }
    ],
    "materials" : [
        {
            "doubleSided" : true,
            "name" : "1",
            "pbrMetallicRoughness" : {
                "baseColorTexture" : {
                    "index" : 0
                },
                "metallicFactor" : 0,
                "roughnessFactor" : 0.9090908765792847
            }
        }
    ],
    "meshes" : [
        {
            "name" : "Plane.006",
            "primitives" : [
                {
                    "attributes" : {
                        "POSITION" : 0,
                        "NORMAL" : 1,
                        "TEXCOORD_0" : 2
                    },
                    "indices" : 3,
                    "material" : 0
                }
            ]
        }
    ],
    "textures" : [
        {
            "sampler" : 0,
            "source" : 0
        }
    ],
    "images" : [
        {
            "bufferView" : 4,
            "mimeType" : "image/jpeg",
            "name" : "1. Procession"
        }
    ],
    "accessors" : [
        {
            "bufferView" : 0,
            "componentType" : 5126,
            "count" : 4,
            "max" : [
                2.533616065979004,
                1.7049999237060547,
                0.36659395694732666
            ],
            "min" : [
                -2.533616065979004,
                -1.7049999237060547,
                -0.36659395694732666
            ],
            "type" : "VEC3"
        },
        {
            "bufferView" : 1,
            "componentType" : 5126,
            "count" : 4,
            "type" : "VEC3"
        },
        {
            "bufferView" : 2,
            "componentType" : 5126,
            "count" : 4,
            "type" : "VEC2"
        },
        {
            "bufferView" : 3,
            "componentType" : 5123,
            "count" : 6,
            "type" : "SCALAR"
        }
    ],
    "bufferViews" : [
        {
            "buffer" : 0,
            "byteLength" : 48,
            "byteOffset" : 0
        },
        {
            "buffer" : 0,
            "byteLength" : 48,
            "byteOffset" : 48
        },
        {
            "buffer" : 0,
            "byteLength" : 32,
            "byteOffset" : 96
        },
        {
            "buffer" : 0,
            "byteLength" : 12,
            "byteOffset" : 128
        },
        {
            "buffer" : 0,
            "byteLength" : 105028,
            "byteOffset" : 140
        }
    ],
    "samplers" : [
        {
            "magFilter" : 9729,
            "minFilter" : 9987
        }
    ],
    "buffers" : [
        {
            "byteLength" : 105168,
            "uri" : "data:application/octet-stream;base64,"
        }
    ]
}
