{
    "asset" : {
        "generator" : "Khronos glTF Blender I/O v1.5.17",
        "version" : "2.0"
    },
    "scene" : 0,
    "scenes" : [
        {
            "name" : "Scene",
            "nodes" : [
                0
            ]
        }
    ],
    "nodes" : [
        {
            "mesh" : 0,
            "name" : "Text.008",
            "rotation" : [
                0.7054027915000916,
                0.04906000196933746,
                -0.04906000569462776,
                0.7054027915000916
            ],
            "scale" : [
                0.14611436426639557,
                0.14611436426639557,
                0.14611436426639557
            ]
        }
    ],
    "materials" : [
        {
            "doubleSided" : true,
            "name" : "text",
            "pbrMetallicRoughness" : {
                "baseColorFactor" : [
                    0.800000011920929,
                    0.800000011920929,
                    0.800000011920929,
                    1
                ],
                "metallicFactor" : 0,
                "roughnessFactor" : 0.5
            }
        }
    ],
    "meshes" : [
        {
            "name" : "Text.008",
            "primitives" : [
                {
                    "attributes" : {
                        "POSITION" : 0,
                        "NORMAL" : 1,
                        "TEXCOORD_0" : 2
                    },
                    "indices" : 3,
                    "material" : 0
                }
            ]
        }
    ],
    "accessors" : [
        {
            "bufferView" : 0,
            "componentType" : 5126,
            "count" : 961,
            "max" : [
                2.3765833377838135,
                0,
                0.5058006644248962
            ],
            "min" : [
                -3.028416872024536,
                0,
                -0.4061993658542633
            ],
            "type" : "VEC3"
        },
        {
            "bufferView" : 1,
            "componentType" : 5126,
            "count" : 961,
            "type" : "VEC3"
        },
        {
            "bufferView" : 2,
            "componentType" : 5126,
            "count" : 961,
            "type" : "VEC2"
        },
        {
            "bufferView" : 3,
            "componentType" : 5123,
            "count" : 2151,
            "type" : "SCALAR"
        }
    ],
    "bufferViews" : [
        {
            "buffer" : 0,
            "byteLength" : 11532,
            "byteOffset" : 0
        },
        {
            "buffer" : 0,
            "byteLength" : 11532,
            "byteOffset" : 11532
        },
        {
            "buffer" : 0,
            "byteLength" : 7688,
            "byteOffset" : 23064
        },
        {
            "buffer" : 0,
            "byteLength" : 4302,
            "byteOffset" : 30752
        }
    ],
    "buffers" : [
        {
            "byteLength" : 35056,
            "uri" : "data:application/octet-stream;base64,"
        }
    ]
}
