{
    "asset" : {
        "generator" : "Khronos glTF Blender I/O v1.5.17",
        "version" : "2.0"
    },
    "scene" : 0,
    "scenes" : [
        {
            "name" : "Scene",
            "nodes" : [
                0
            ]
        }
    ],
    "nodes" : [
        {
            "mesh" : 0,
            "name" : "Text.002",
            "rotation" : [
                0.705102264881134,
                -0.05320509523153305,
                0.05320509895682335,
                0.705102264881134
            ],
            "scale" : [
                0.1696835458278656,
                0.1696835458278656,
                0.1696835309267044
            ]
        }
    ],
    "materials" : [
        {
            "doubleSided" : true,
            "name" : "text",
            "pbrMetallicRoughness" : {
                "baseColorFactor" : [
                    0.800000011920929,
                    0.800000011920929,
                    0.800000011920929,
                    1
                ],
                "metallicFactor" : 0,
                "roughnessFactor" : 0.5
            }
        }
    ],
    "meshes" : [
        {
            "name" : "Text.002",
            "primitives" : [
                {
                    "attributes" : {
                        "POSITION" : 0,
                        "NORMAL" : 1,
                        "TEXCOORD_0" : 2
                    },
                    "indices" : 3,
                    "material" : 0
                }
            ]
        }
    ],
    "accessors" : [
        {
            "bufferView" : 0,
            "componentType" : 5126,
            "count" : 740,
            "max" : [
                1.311968445777893,
                0,
                0.2343563735485077
            ],
            "min" : [
                -2.1320316791534424,
                0,
                -0.45664364099502563
            ],
            "type" : "VEC3"
        },
        {
            "bufferView" : 1,
            "componentType" : 5126,
            "count" : 740,
            "type" : "VEC3"
        },
        {
            "bufferView" : 2,
            "componentType" : 5126,
            "count" : 740,
            "type" : "VEC2"
        },
        {
            "bufferView" : 3,
            "componentType" : 5123,
            "count" : 1644,
            "type" : "SCALAR"
        }
    ],
    "bufferViews" : [
        {
            "buffer" : 0,
            "byteLength" : 8880,
            "byteOffset" : 0
        },
        {
            "buffer" : 0,
            "byteLength" : 8880,
            "byteOffset" : 8880
        },
        {
            "buffer" : 0,
            "byteLength" : 5920,
            "byteOffset" : 17760
        },
        {
            "buffer" : 0,
            "byteLength" : 3288,
            "byteOffset" : 23680
        }
    ],
    "buffers" : [
        {
            "byteLength" : 26968,
            "uri" : "data:application/octet-stream;base64,"
        }
    ]
}
