{
    "asset" : {
        "generator" : "Khronos glTF Blender I/O v1.5.17",
        "version" : "2.0"
    },
    "scene" : 0,
    "scenes" : [
        {
            "name" : "Scene",
            "nodes" : [
                0
            ]
        }
    ],
    "nodes" : [
        {
            "mesh" : 0,
            "name" : "Text",
            "rotation" : [
                0.6947898268699646,
                0.05197501927614212,
                -0.05046673119068146,
                0.7155548930168152
            ],
            "scale" : [
                0.1338125318288803,
                0.1338125318288803,
                0.13381251692771912
            ]
        }
    ],
    "materials" : [
        {
            "doubleSided" : true,
            "name" : "text",
            "pbrMetallicRoughness" : {
                "baseColorFactor" : [
                    0.800000011920929,
                    0.800000011920929,
                    0.800000011920929,
                    1
                ],
                "metallicFactor" : 0,
                "roughnessFactor" : 0.5
            }
        }
    ],
    "meshes" : [
        {
            "name" : "Text",
            "primitives" : [
                {
                    "attributes" : {
                        "POSITION" : 0,
                        "NORMAL" : 1,
                        "TEXCOORD_0" : 2
                    },
                    "indices" : 3,
                    "material" : 0
                }
            ]
        }
    ],
    "accessors" : [
        {
            "bufferView" : 0,
            "componentType" : 5126,
            "count" : 1195,
            "max" : [
                2.013714551925659,
                0,
                0.2872109115123749
            ],
            "min" : [
                -2.2712857723236084,
                0,
                -0.40378913283348083
            ],
            "type" : "VEC3"
        },
        {
            "bufferView" : 1,
            "componentType" : 5126,
            "count" : 1195,
            "type" : "VEC3"
        },
        {
            "bufferView" : 2,
            "componentType" : 5126,
            "count" : 1195,
            "type" : "VEC2"
        },
        {
            "bufferView" : 3,
            "componentType" : 5123,
            "count" : 2589,
            "type" : "SCALAR"
        }
    ],
    "bufferViews" : [
        {
            "buffer" : 0,
            "byteLength" : 14340,
            "byteOffset" : 0
        },
        {
            "buffer" : 0,
            "byteLength" : 14340,
            "byteOffset" : 14340
        },
        {
            "buffer" : 0,
            "byteLength" : 9560,
            "byteOffset" : 28680
        },
        {
            "buffer" : 0,
            "byteLength" : 5178,
            "byteOffset" : 38240
        }
    ],
    "buffers" : [
        {
            "byteLength" : 43420,
            "uri" : "data:application/octet-stream;base64,"
        }
    ]
}
