{
    "asset" : {
        "generator" : "Khronos glTF Blender I/O v1.5.17",
        "version" : "2.0"
    },
    "scene" : 0,
    "scenes" : [
        {
            "name" : "Scene",
            "nodes" : [
                0
            ]
        }
    ],
    "nodes" : [
        {
            "mesh" : 0,
            "name" : "Text.001",
            "rotation" : [
                0.5,
                -0.5,
                0.5,
                0.4999999701976776
            ],
            "scale" : [
                0.15485897660255432,
                0.15485897660255432,
                0.15485897660255432
            ]
        }
    ],
    "materials" : [
        {
            "doubleSided" : true,
            "name" : "text",
            "pbrMetallicRoughness" : {
                "baseColorFactor" : [
                    0.800000011920929,
                    0.800000011920929,
                    0.800000011920929,
                    1
                ],
                "metallicFactor" : 0,
                "roughnessFactor" : 0.5
            }
        }
    ],
    "meshes" : [
        {
            "name" : "Text.001",
            "primitives" : [
                {
                    "attributes" : {
                        "POSITION" : 0,
                        "NORMAL" : 1,
                        "TEXCOORD_0" : 2
                    },
                    "indices" : 3,
                    "material" : 0
                }
            ]
        }
    ],
    "accessors" : [
        {
            "bufferView" : 0,
            "componentType" : 5126,
            "count" : 1190,
            "max" : [
                1.3641681671142578,
                0,
                0.4125712513923645
            ],
            "min" : [
                -2.6678318977355957,
                0,
                -0.49942877888679504
            ],
            "type" : "VEC3"
        },
        {
            "bufferView" : 1,
            "componentType" : 5126,
            "count" : 1190,
            "type" : "VEC3"
        },
        {
            "bufferView" : 2,
            "componentType" : 5126,
            "count" : 1190,
            "type" : "VEC2"
        },
        {
            "bufferView" : 3,
            "componentType" : 5123,
            "count" : 2568,
            "type" : "SCALAR"
        }
    ],
    "bufferViews" : [
        {
            "buffer" : 0,
            "byteLength" : 14280,
            "byteOffset" : 0
        },
        {
            "buffer" : 0,
            "byteLength" : 14280,
            "byteOffset" : 14280
        },
        {
            "buffer" : 0,
            "byteLength" : 9520,
            "byteOffset" : 28560
        },
        {
            "buffer" : 0,
            "byteLength" : 5136,
            "byteOffset" : 38080
        }
    ],
    "buffers" : [
        {
            "byteLength" : 43216,
            "uri" : "data:application/octet-stream;base64,"
        }
    ]
}
