{
    "asset" : {
        "generator" : "Khronos glTF Blender I/O v1.5.17",
        "version" : "2.0"
    },
    "scene" : 0,
    "scenes" : [
        {
            "name" : "Scene",
            "nodes" : [
                0
            ]
        }
    ],
    "nodes" : [
        {
            "mesh" : 0,
            "name" : "Text.004",
            "rotation" : [
                0.70536869764328,
                0.049548253417015076,
                -0.049548253417015076,
                0.7053686380386353
            ],
            "scale" : [
                0.14706264436244965,
                0.14706264436244965,
                0.14706258475780487
            ]
        }
    ],
    "materials" : [
        {
            "doubleSided" : true,
            "name" : "text",
            "pbrMetallicRoughness" : {
                "baseColorFactor" : [
                    0.800000011920929,
                    0.800000011920929,
                    0.800000011920929,
                    1
                ],
                "metallicFactor" : 0,
                "roughnessFactor" : 0.5
            }
        }
    ],
    "meshes" : [
        {
            "name" : "Text.004",
            "primitives" : [
                {
                    "attributes" : {
                        "POSITION" : 0,
                        "NORMAL" : 1,
                        "TEXCOORD_0" : 2
                    },
                    "indices" : 3,
                    "material" : 0
                }
            ]
        }
    ],
    "accessors" : [
        {
            "bufferView" : 0,
            "componentType" : 5126,
            "count" : 693,
            "max" : [
                1.372039794921875,
                0,
                0.2768082320690155
            ],
            "min" : [
                -1.5209605693817139,
                0,
                -0.4141918122768402
            ],
            "type" : "VEC3"
        },
        {
            "bufferView" : 1,
            "componentType" : 5126,
            "count" : 693,
            "type" : "VEC3"
        },
        {
            "bufferView" : 2,
            "componentType" : 5126,
            "count" : 693,
            "type" : "VEC2"
        },
        {
            "bufferView" : 3,
            "componentType" : 5123,
            "count" : 1527,
            "type" : "SCALAR"
        }
    ],
    "bufferViews" : [
        {
            "buffer" : 0,
            "byteLength" : 8316,
            "byteOffset" : 0
        },
        {
            "buffer" : 0,
            "byteLength" : 8316,
            "byteOffset" : 8316
        },
        {
            "buffer" : 0,
            "byteLength" : 5544,
            "byteOffset" : 16632
        },
        {
            "buffer" : 0,
            "byteLength" : 3054,
            "byteOffset" : 22176
        }
    ],
    "buffers" : [
        {
            "byteLength" : 25232,
            "uri" : "data:application/octet-stream;base64,"
        }
    ]
}
